<?xml version="1.0" standalone="no"?>
<!DOCTYPE svg PUBLIC "-//W3C//DTD SVG 20010904//EN"
 "http://www.w3.org/TR/2001/REC-SVG-20010904/DTD/svg10.dtd">
<svg version="1.0" xmlns="http://www.w3.org/2000/svg"
 width="104.000000pt" height="128.000000pt" viewBox="0 0 104.000000 128.000000"
 preserveAspectRatio="xMidYMid meet">
<g transform="translate(0.000000,128.000000) scale(0.100000,-0.100000)"
fill="#888888" stroke="none">
<path d="M405 1231 c-6 -10 -18 -33 -28 -51 -23 -40 -16 -77 18 -92 59 -27
102 32 68 92 -10 18 -22 41 -28 51 -5 11 -12 19 -15 19 -3 0 -10 -8 -15 -19z
m-9 -108 c-10 -10 -19 5 -10 18 6 11 8 11 12 0 2 -7 1 -15 -2 -18z"/>
<path d="M206 1142 c-66 -100 -77 -141 -51 -190 15 -27 31 -41 61 -51 50 -18
88 -9 125 29 23 23 29 37 29 73 0 37 -9 58 -56 128 -30 46 -56 84 -57 85 -1 0
-24 -33 -51 -74z m0 -113 c-3 -17 -1 -40 5 -51 13 -25 5 -35 -16 -18 -23 19
-18 100 7 100 6 0 8 -13 4 -31z"/>
<path d="M638 1159 c-22 -38 -23 -63 -3 -79 20 -17 65 2 65 26 0 13 -37 84
-43 84 -1 0 -10 -14 -19 -31z"/>
<path d="M507 1107 c-61 -88 -41 -157 44 -157 47 0 84 40 75 82 -5 27 -65 126
-77 127 -3 1 -22 -23 -42 -52z m9 -82 c0 -37 -10 -46 -20 -19 -7 19 1 54 13
54 4 0 7 -16 7 -35z"/>
<path d="M200 860 c0 -13 -7 -20 -20 -20 -17 0 -20 -7 -20 -40 0 -33 -3 -40
-20 -40 -18 0 -20 -7 -20 -60 0 -53 -2 -60 -20 -60 -13 0 -20 -7 -20 -20 0
-17 -7 -20 -40 -20 -40 0 -40 0 -40 -40 0 -33 3 -40 20 -40 19 0 20 -7 20
-260 l0 -260 60 0 60 0 0 40 0 40 360 0 360 0 0 -40 0 -40 60 0 60 0 0 260 c0
253 1 260 20 260 17 0 20 7 20 40 0 40 0 40 -40 40 -33 0 -40 3 -40 20 0 13
-7 20 -20 20 -18 0 -20 7 -20 60 0 53 -2 60 -20 60 -17 0 -20 7 -20 40 0 33
-3 40 -20 40 -13 0 -20 7 -20 20 0 20 -7 20 -320 20 -313 0 -320 0 -320 -20z
m600 -100 c0 -33 3 -40 20 -40 18 0 20 -7 20 -60 l0 -60 -320 0 -320 0 0 60
c0 53 2 60 20 60 17 0 20 7 20 40 l0 40 280 0 280 0 0 -40z m-560 -340 c0 -13
7 -20 20 -20 17 0 20 -7 20 -40 0 -40 0 -40 -40 -40 -33 0 -40 3 -40 20 0 17
-7 20 -40 20 -40 0 -40 0 -40 40 l0 40 60 0 c53 0 60 -2 60 -20z m680 -20 c0
-40 0 -40 -40 -40 -33 0 -40 -3 -40 -20 0 -17 -7 -20 -40 -20 -40 0 -40 0 -40
40 0 33 3 40 20 40 13 0 20 7 20 20 0 18 7 20 60 20 l60 0 0 -40z m-520 -140
c0 -19 7 -20 120 -20 113 0 120 1 120 20 0 17 7 20 40 20 33 0 40 -3 40 -20 0
-13 -7 -20 -20 -20 -13 0 -20 -7 -20 -20 0 -19 -7 -20 -160 -20 -153 0 -160 1
-160 20 0 13 -7 20 -20 20 -13 0 -20 7 -20 20 0 17 7 20 40 20 33 0 40 -3 40
-20z"/>
</g>
</svg>
