<?xml version="1.0" standalone="no"?>
<!DOCTYPE svg PUBLIC "-//W3C//DTD SVG 20010904//EN"
 "http://www.w3.org/TR/2001/REC-SVG-20010904/DTD/svg10.dtd">
<svg version="1.0" xmlns="http://www.w3.org/2000/svg"
 width="104.000000pt" height="128.000000pt" viewBox="0 0 104.000000 128.000000"
 preserveAspectRatio="xMidYMid meet">
<g transform="translate(0.000000,128.000000) scale(0.100000,-0.100000)"
fill="#333333" stroke="none">
<path d="M410 1240 c0 -5 -11 -26 -25 -46 -32 -47 -32 -79 0 -100 32 -21 72
-11 86 20 11 22 6 37 -34 114 -12 22 -27 30 -27 12z m30 -99 c-1 -29 -11 -17
-25 29 -7 22 -6 23 9 11 9 -7 16 -25 16 -40z m-36 -30 c-6 -8 -24 12 -24 28 0
31 15 34 21 4 3 -15 4 -30 3 -32z"/>
<path d="M250 1217 c0 -8 -18 -39 -40 -71 -74 -106 -86 -161 -46 -210 20 -25
31 -30 82 -34 54 -4 63 -1 92 23 27 23 32 34 32 71 0 47 -8 67 -53 126 -15 20
-34 52 -42 72 -16 37 -25 46 -25 23z m53 -123 c54 -82 49 -141 -14 -163 -18
-6 -34 -10 -35 -8 -2 2 -6 37 -10 78 -4 41 -11 80 -17 86 -10 13 15 63 31 63
4 0 24 -25 45 -56z m-94 -56 c-12 -44 -12 -44 13 -68 25 -23 19 -36 -11 -21
-33 18 -42 43 -29 84 15 48 41 52 27 5z"/>
<path d="M638 1159 c-21 -36 -23 -60 -6 -77 18 -18 45 -14 62 10 14 19 13 24
-4 49 -11 15 -20 32 -20 38 0 20 -15 11 -32 -20z m9 -51 c-3 -8 -6 -5 -6 6 -1
11 2 17 5 13 3 -3 4 -12 1 -19z"/>
<path d="M531 1148 c-5 -13 -21 -38 -35 -57 -51 -68 -22 -141 55 -141 29 0 42
6 59 27 26 33 19 73 -21 124 -16 20 -29 44 -29 53 0 24 -19 19 -29 -6z m43
-73 c20 -30 21 -81 2 -88 -21 -8 -44 56 -37 106 2 15 19 6 35 -18z m-55 -32
c-1 -16 2 -36 6 -45 9 -22 -8 -24 -25 -3 -7 9 -9 26 -5 45 8 38 26 40 24 3z"/>
<path d="M160 864 c0 -14 3 -14 15 -4 8 7 15 14 15 16 0 2 -7 4 -15 4 -8 0
-15 -7 -15 -16z"/>
<path d="M200 860 c0 -13 -7 -20 -20 -20 -18 0 -20 -7 -20 -60 0 -47 -3 -60
-15 -60 -12 0 -13 4 -5 19 7 14 6 21 -3 24 -9 3 -9 7 2 20 12 15 11 17 -3 17
-14 0 -16 -14 -16 -100 0 -83 -3 -100 -15 -100 -12 0 -13 4 -5 19 7 14 6 21
-3 24 -9 3 -9 7 2 20 12 15 11 17 -3 17 -12 0 -16 -10 -16 -40 0 -40 0 -40
-40 -40 -30 0 -40 -4 -40 -16 0 -11 6 -15 20 -11 15 4 20 0 20 -14 0 -12 -7
-19 -20 -19 -11 0 -20 -4 -20 -10 0 -5 9 -10 20 -10 19 0 20 -7 20 -260 0
-167 4 -260 10 -260 6 0 10 9 10 20 0 28 20 25 21 -2 0 -13 3 -17 6 -10 3 8 0
24 -6 36 -8 15 -11 86 -9 229 2 114 0 207 -4 207 -14 0 -9 40 5 40 6 0 4 5 -6
11 -27 16 -21 39 11 39 16 0 37 6 47 14 15 11 22 11 44 0 38 -20 664 -20 702
0 22 11 29 11 44 0 10 -8 31 -14 47 -14 33 0 38 -24 8 -40 -21 -11 -27 -44
-10 -55 14 -9 13 -418 -1 -432 -6 -6 -9 -19 -6 -29 4 -16 5 -15 6 4 1 27 21
30 21 2 0 -11 5 -20 10 -20 6 0 10 93 10 260 0 253 1 260 20 260 11 0 20 7 20
16 0 11 -6 14 -20 9 -15 -5 -20 -2 -20 13 0 15 5 19 20 15 14 -4 20 0 20 11 0
12 -10 16 -40 16 -40 0 -40 0 -40 40 0 30 -4 40 -16 40 -14 0 -15 -2 -3 -17
11 -13 11 -17 2 -20 -9 -3 -10 -10 -3 -24 8 -15 7 -19 -5 -19 -12 0 -15 17
-15 100 0 86 -2 100 -16 100 -14 0 -15 -2 -3 -17 11 -13 11 -17 2 -20 -9 -3
-10 -10 -3 -24 8 -15 7 -19 -5 -19 -12 0 -15 13 -15 60 0 53 -2 60 -20 60 -13
0 -20 7 -20 20 0 20 -7 20 -320 20 -313 0 -320 0 -320 -20z m623 -22 c3 -10
-61 -13 -303 -13 -242 0 -306 3 -303 13 4 9 74 12 303 12 229 0 299 -3 303
-12z m-603 -48 c0 -19 -18 -19 -23 -1 -3 14 -1 18 9 14 8 -3 14 -9 14 -13z
m623 -1 c-4 -15 -9 -17 -17 -9 -8 8 -7 13 4 20 8 5 16 10 17 10 0 0 -1 -9 -4
-21z m-43 -49 c0 -47 3 -60 15 -60 13 0 14 4 5 20 -8 14 -8 20 0 20 8 0 8 6 0
20 -9 16 -8 20 5 20 12 0 15 -15 15 -80 l0 -80 -320 0 -320 0 0 80 c0 65 3 80
15 80 13 0 14 -4 5 -20 -8 -14 -8 -20 0 -20 8 0 8 -6 0 -20 -9 -16 -8 -20 5
-20 12 0 15 13 15 60 l0 60 280 0 280 0 0 -60z m-630 -59 c0 -11 -4 -23 -10
-26 -6 -4 -10 5 -10 19 0 14 5 26 10 26 6 0 10 -9 10 -19z m720 -7 c0 -14 -4
-23 -10 -19 -5 3 -10 15 -10 26 0 10 5 19 10 19 6 0 10 -12 10 -26z m-704 -54
c0 -11 -6 -20 -13 -20 -7 0 -13 9 -13 20 0 11 6 20 13 20 7 0 13 -9 13 -20z
m694 0 c0 -11 -6 -20 -13 -20 -7 0 -13 9 -13 20 0 11 6 20 13 20 7 0 13 -9 13
-20z m100 -120 c0 -11 -4 -20 -10 -20 -5 0 -10 9 -10 20 0 11 5 20 10 20 6 0
10 -9 10 -20z"/>
<path d="M850 876 c0 -2 7 -9 15 -16 12 -10 15 -10 15 4 0 9 -7 16 -15 16 -8
0 -15 -2 -15 -4z"/>
<path d="M120 825 c0 -8 2 -15 4 -15 2 0 6 7 10 15 3 8 1 15 -4 15 -6 0 -10
-7 -10 -15z"/>
<path d="M906 825 c4 -8 8 -15 10 -15 2 0 4 7 4 15 0 8 -4 15 -10 15 -5 0 -7
-7 -4 -15z"/>
<path d="M107 453 c-9 -11 -17 -35 -17 -55 0 -50 60 -99 131 -106 68 -6 79 6
79 83 0 79 -11 89 -104 93 -60 3 -74 1 -89 -15z m133 -33 c0 -13 7 -20 20 -20
17 0 20 -7 20 -40 l0 -40 -60 0 c-47 0 -60 3 -60 15 0 12 4 13 19 5 14 -7 21
-6 24 3 3 9 7 9 20 -2 15 -12 17 -11 17 3 0 13 -11 16 -60 16 l-60 0 0 40 0
40 60 0 c53 0 60 -2 60 -20z m40 4 c0 -14 -3 -14 -15 -4 -8 7 -15 14 -15 16 0
2 7 4 15 4 8 0 15 -7 15 -16z"/>
<path d="M770 457 c-41 -21 -55 -120 -20 -152 29 -26 106 -16 154 20 32 25 36
32 36 74 0 26 -5 52 -12 59 -16 16 -126 15 -158 -1z m20 -21 c0 -2 -7 -9 -15
-16 -12 -10 -15 -10 -15 4 0 9 7 16 15 16 8 0 15 -2 15 -4z m130 -36 l0 -40
-60 0 c-49 0 -60 -3 -60 -16 0 -14 2 -15 17 -3 13 11 17 11 20 2 3 -9 10 -10
24 -3 15 8 19 7 19 -5 0 -12 -13 -15 -60 -15 l-60 0 0 40 c0 33 3 40 20 40 13
0 20 7 20 20 0 18 7 20 60 20 l60 0 0 -40z"/>
<path d="M307 292 c-25 -28 -21 -44 21 -85 l38 -37 155 0 155 0 32 33 c33 34
41 74 20 95 -20 20 -83 15 -103 -8 -15 -17 -31 -20 -105 -20 -74 0 -90 3 -105
20 -24 26 -86 27 -108 2z m93 -32 c0 -19 7 -20 120 -20 113 0 120 1 120 20 0
17 7 20 40 20 33 0 40 -3 40 -20 0 -13 -7 -20 -20 -20 -13 0 -20 -7 -20 -20 0
-19 -7 -20 -160 -20 -153 0 -160 1 -160 20 0 13 -7 20 -20 20 -13 0 -20 7 -20
20 0 17 7 20 40 20 33 0 40 -3 40 -20z"/>
<path d="M149 93 c-24 -30 -42 -70 -36 -85 3 -7 6 -3 6 10 1 27 21 30 21 2 0
-11 5 -20 10 -20 6 0 10 18 10 40 l0 40 360 0 360 0 0 -40 c0 -22 5 -40 10
-40 6 0 10 9 10 20 0 28 20 25 21 -2 0 -13 3 -17 6 -10 6 15 -12 55 -36 85
-13 16 -43 17 -371 17 -328 0 -358 -1 -371 -17z"/>
</g>
</svg>
