<?xml version="1.0" standalone="no"?>
<!DOCTYPE svg PUBLIC "-//W3C//DTD SVG 20010904//EN"
 "http://www.w3.org/TR/2001/REC-SVG-20010904/DTD/svg10.dtd">
<svg version="1.0" xmlns="http://www.w3.org/2000/svg"
 width="312.000000pt" height="384.000000pt" viewBox="0 0 312.000000 384.000000"
 preserveAspectRatio="xMidYMid meet">
<g transform="translate(0.000000,384.000000) scale(0.100000,-0.100000)"
fill="#333333" stroke="none">
<path d="M1227 3724 c-4 -4 -7 -15 -7 -23 0 -9 -23 -50 -51 -91 -62 -90 -99
-170 -99 -211 0 -38 32 -101 64 -127 14 -10 46 -25 71 -32 52 -15 118 -1 161
32 30 24 64 88 64 121 0 37 -31 118 -62 162 -57 80 -81 119 -88 145 -6 24 -38
39 -53 24z m-45 -334 c3 -29 0 -35 -17 -35 -24 0 -33 48 -14 71 16 20 28 6 31
-36z"/>
<path d="M739 3633 c-16 -46 -60 -124 -108 -193 -24 -36 -54 -78 -65 -95 -11
-16 -28 -39 -38 -50 -37 -45 -97 -179 -108 -245 -26 -152 29 -261 174 -344 48
-28 58 -30 161 -30 100 -1 115 1 165 26 97 48 171 138 184 223 10 69 -9 188
-40 252 -28 58 -91 154 -148 227 -42 54 -68 98 -110 184 -19 39 -40 72 -46 72
-6 0 -15 -12 -21 -27z m-122 -469 c3 -8 0 -48 -7 -89 -15 -88 -7 -139 26 -167
34 -30 32 -58 -5 -58 -21 0 -39 12 -70 45 -36 39 -41 50 -41 92 0 67 47 193
72 193 10 0 21 -7 25 -16z"/>
<path d="M1940 3526 c-5 -14 -28 -55 -51 -92 -34 -53 -42 -76 -42 -111 0 -40
4 -49 39 -79 51 -44 96 -45 152 -4 23 16 45 42 48 56 9 36 -10 93 -49 145 -19
24 -38 58 -44 74 -13 39 -40 45 -53 11z"/>
<path d="M1610 3455 c-7 -8 -36 -52 -66 -97 -30 -46 -64 -94 -75 -108 -12 -14
-33 -47 -45 -75 -29 -62 -33 -169 -8 -221 41 -86 164 -134 283 -109 132 27
195 135 161 276 -12 51 -44 104 -144 239 -23 30 -46 67 -53 82 -13 31 -34 36
-53 13z m-74 -349 c-6 -47 -3 -73 8 -101 20 -47 20 -45 -5 -45 -28 0 -79 56
-79 87 0 41 42 123 64 123 17 0 18 -6 12 -64z"/>
<path d="M587 2623 c-4 -3 -7 -28 -7 -54 l0 -48 -52 -3 -53 -3 -9 -123 -9
-123 -43 2 c-24 2 -46 1 -49 -2 -3 -4 -7 -42 -10 -85 -2 -43 -7 -123 -11 -176
l-7 -98 -48 0 -48 0 -3 -57 -3 -58 -117 -3 -118 -3 0 -119 0 -119 53 -3 52 -3
3 -772 2 -773 180 0 179 0 3 113 3 112 1075 0 1075 0 3 -112 3 -113 179 0 180
0 0 775 0 775 65 0 65 0 0 120 0 119 -127 3 -128 3 -3 58 -3 57 -48 0 -48 0
-7 98 c-4 53 -9 133 -11 176 -3 43 -7 81 -10 85 -3 3 -25 4 -49 2 l-43 -2 -9
123 -9 123 -52 3 -52 3 -3 52 -3 52 -961 3 c-528 1 -964 -1 -967 -5z m1808
-345 c5 -62 9 -140 10 -173 1 -38 6 -60 14 -59 6 1 23 2 37 3 28 1 23 21 -5
21 -12 0 -21 10 -24 28 -7 33 -1 39 38 44 35 4 33 13 41 -224 l5 -128 -961 0
-961 0 5 128 c8 237 6 228 41 224 39 -5 45 -11 38 -44 -3 -18 -12 -28 -24 -28
-28 0 -33 -20 -5 -21 14 -1 31 -2 37 -3 8 -1 13 21 14 59 1 33 5 111 10 173
l8 112 837 0 837 0 8 -112z m-1677 -1025 l3 -52 52 -3 52 -3 3 -114 c1 -63 -2
-119 -7 -124 -5 -5 -52 -6 -115 -2 l-106 7 0 49 c0 58 1 58 -145 62 l-100 2
-3 104 c-1 58 0 111 2 118 4 11 42 13 183 11 l178 -3 3 -52z m2027 -63 l0
-115 -100 -2 c-146 -4 -145 -4 -145 -62 l0 -49 -106 -7 c-63 -4 -110 -3 -115
2 -5 5 -8 61 -7 124 l3 114 53 3 52 3 0 48 c0 26 3 51 7 55 4 3 86 5 182 4
l176 -3 0 -115z m-1555 -420 l5 -55 355 0 355 0 5 55 5 55 115 0 115 0 0 -55
0 -55 -55 -5 -55 -5 -5 -55 -5 -55 -475 0 -475 0 -5 55 -5 55 -55 5 -55 5 -3
44 c-5 72 -6 72 120 69 l113 -3 5 -55z"/>
</g>
</svg>
